HIERARCHY
ROOT hip
{
  OFFSET 0 0 0
  CHANNELS 6 Xposition Yposition Zposition Zrotation Yrotation Xrotation
  JOINT abdomen
  {
    OFFSET 0 20.6881 -0.73152
    CHANNELS 3 Zrotation Xrotation Yrotation
    JOINT chest
    {
      OFFSET 0 11.7043 -0.48768
      CHANNELS 3 Zrotation Xrotation Yrotation
      JOINT neck
      {
        OFFSET 0 22.1894 -2.19456
        CHANNELS 3 Zrotation Xrotation Yrotation
        JOINT head
        {
          OFFSET -0.24384 7.07133 1.2192
          CHANNELS 3 Zrotation Xrotation Yrotation
          JOINT leftEye
          {
            OFFSET 4.14528 8.04674 8.04672
            CHANNELS 3 Zrotation Xrotation Yrotation
            End Site
            {
              OFFSET 1 0 0
            }
          }
          JOINT rightEye
          {
            OFFSET -3.6576 8.04674 8.04672
            CHANNELS 3 Zrotation Xrotation Yrotation
            End Site
            {
              OFFSET 1 0 0
            }
          }
        }
      }
      JOINT rCollar
      {
        OFFSET -2.68224 19.2634 -4.8768
        CHANNELS 3 Zrotation Xrotation Yrotation
        JOINT rShldr
        {
          OFFSET -8.77824 -1.95073 1.46304
          CHANNELS 3 Zrotation Xrotation Yrotation
          JOINT rForeArm
          {
            OFFSET -28.1742 -1.7115 0.48768
            CHANNELS 3 Zrotation Xrotation Yrotation
            JOINT rHand
            {
              OFFSET -22.5879 0.773209 7.07136
              CHANNELS 3 Zrotation Xrotation Yrotation
              JOINT rThumb1
              {
                OFFSET -1.2192 -0.487915 3.41376
                CHANNELS 3 Zrotation Xrotation Yrotation
                JOINT rThumb2
                {
                  OFFSET -3.37035 -0.52449 3.41376
                  CHANNELS 3 Zrotation Xrotation Yrotation
                  End Site
                  {
                    OFFSET -1.78271 -1.18214 1.43049
                  }
                }
              }
              JOINT rIndex1
              {
                OFFSET -7.75947 0.938293 5.60832
                CHANNELS 3 Zrotation Xrotation Yrotation
                JOINT rIndex2
                {
                  OFFSET -2.54057 -0.884171 1.56538
                  CHANNELS 3 Zrotation Xrotation Yrotation
                  End Site
                  {
                    OFFSET -1.62519 -0.234802 1.16502
                  }
                }
              }
              JOINT rMid1
              {
                OFFSET -8.24714 1.18213 3.41376
                CHANNELS 3 Zrotation Xrotation Yrotation
                JOINT rMid2
                {
                  OFFSET -3.10165 -0.590103 1.0647
                  CHANNELS 3 Zrotation Xrotation Yrotation
                  End Site
                  {
                    OFFSET -2.48547 -0.328903 0.83742
                  }
                }
              }
              JOINT rRing1
              {
                OFFSET -8.82822 0.546677 1.51678
                CHANNELS 3 Zrotation Xrotation Yrotation
                JOINT rRing2
                {
                  OFFSET -2.60934 -0.819778 -0.0198488
                  CHANNELS 3 Zrotation Xrotation Yrotation
                  End Site
                  {
                    OFFSET -2.33842 -0.294052 0.168128
                  }
                }
              }
              JOINT rPinky1
              {
                OFFSET -8.27202 -0.0477905 -0.4584
                CHANNELS 3 Zrotation Xrotation Yrotation
                JOINT rPinky2
                {
                  OFFSET -1.82734 -0.647385 -0.700984
                  CHANNELS 3 Zrotation Xrotation Yrotation
                  End Site
                  {
                    OFFSET -1.69225 -0.51767 -0.607171
                  }
                }
              }
            }
          }
        }
      }
      JOINT lCollar
      {
        OFFSET 2.68224 19.2634 -4.8768
        CHANNELS 3 Zrotation Xrotation Yrotation
        JOINT lShldr
        {
          OFFSET 8.77824 -1.95073 1.46304
          CHANNELS 3 Zrotation Xrotation Yrotation
          JOINT lForeArm
          {
            OFFSET 28.1742 -1.7115 0.48768
            CHANNELS 3 Zrotation Xrotation Yrotation
            JOINT lHand
            {
              OFFSET 22.5879 0.773209 7.07136
              CHANNELS 3 Zrotation Xrotation Yrotation
              JOINT lThumb1
              {
                OFFSET 1.2192 -0.487915 3.41376
                CHANNELS 3 Zrotation Xrotation Yrotation
                JOINT lThumb2
                {
                  OFFSET 3.37035 -0.52449 3.41376
                  CHANNELS 3 Zrotation Xrotation Yrotation
                  End Site
                  {
                    OFFSET 1.78271 -1.18214 1.43049
                  }
                }
              }
              JOINT lIndex1
              {
                OFFSET 7.75947 0.938293 5.60832
                CHANNELS 3 Zrotation Xrotation Yrotation
                JOINT lIndex2
                {
                  OFFSET 2.54057 -0.884171 1.56538
                  CHANNELS 3 Zrotation Xrotation Yrotation
                  End Site
                  {
                    OFFSET 1.62519 -0.234802 1.16502
                  }
                }
              }
              JOINT lMid1
              {
                OFFSET 8.24714 1.18213 3.41376
                CHANNELS 3 Zrotation Xrotation Yrotation
                JOINT lMid2
                {
                  OFFSET 3.10165 -0.590103 1.0647
                  CHANNELS 3 Zrotation Xrotation Yrotation
                  End Site
                  {
                    OFFSET 2.48547 -0.328903 0.83742
                  }
                }
              }
              JOINT lRing1
              {
                OFFSET 8.82822 0.546677 1.51678
                CHANNELS 3 Zrotation Xrotation Yrotation
                JOINT lRing2
                {
                  OFFSET 2.60934 -0.819778 -0.0198488
                  CHANNELS 3 Zrotation Xrotation Yrotation
                  End Site
                  {
                    OFFSET 2.33842 -0.294052 0.168128
                  }
                }
              }
              JOINT lPinky1
              {
                OFFSET 8.27202 -0.0477905 -0.4584
                CHANNELS 3 Zrotation Xrotation Yrotation
                JOINT lPinky2
                {
                  OFFSET 1.82734 -0.647385 -0.700984
                  CHANNELS 3 Zrotation Xrotation Yrotation
                  End Site
                  {
                    OFFSET 1.69225 -0.51767 -0.607171
                  }
                }
              }
            }
          }
        }
      }
    }
  }
  JOINT rButtock
  {
    OFFSET -8.77824 4.35084 1.2192
    CHANNELS 3 Zrotation Xrotation Yrotation
    JOINT rThigh
    {
      OFFSET 0 -1.70687 -2.19456
      CHANNELS 3 Zrotation Xrotation Yrotation
      JOINT rShin
      {
        OFFSET 0 -36.8199 0.73152
        CHANNELS 3 Zrotation Xrotation Yrotation
        JOINT rFoot
        {
          OFFSET 0.73152 -45.1104 -5.12064
          CHANNELS 3 Zrotation Xrotation Yrotation
          End Site
          {
            OFFSET -1.1221 -3.69964 12.103
          }
        }
      }
    }
  }
  JOINT lButtock
  {
    OFFSET 8.77824 4.35084 1.2192
    CHANNELS 3 Zrotation Xrotation Yrotation
    JOINT lThigh
    {
      OFFSET 0 -1.70687 -2.19456
      CHANNELS 3 Zrotation Xrotation Yrotation
      JOINT lShin
      {
        OFFSET 0 -36.8199 0.73152
        CHANNELS 3 Zrotation Xrotation Yrotation
        JOINT lFoot
        {
          OFFSET -0.73152 -45.1104 -5.12064
          CHANNELS 3 Zrotation Xrotation Yrotation
          End Site
          {
            OFFSET 1.1221 -3.69964 12.103
          }
        }
      }
    }
  }
}
MOTION
Frames:	8
Frame Time:	0.00833333
22.2202 84.1652 -3.92018 -114.125 87.4039 -99.7802 -1.50767 -11.6362 0.420106 1.77476 3.13158 0.365622 -4.74599 -4.66575 -11.0135 178.22 25.2933 -13.9102 -0.0 0.0 0.0 -0.0 0.0 0.0 -7.30971e-14 -3.27588e-13 -1.25731e-14 178.865 68.2921 -135.417 -28.3968 -34.2106 74.0418 -0.181274 12.0437 1.71827 -1.09517e-09 5.13547e-10 -1.18494e-09 -1.89846e-09 8.98933e-10 -2.04489e-09 -1.09516e-09 5.13543e-10 -1.18496e-09 7.73091 5.47488 0.417314 -1.09516e-09 5.13541e-10 -1.18494e-09 2.90554 0.965183 0.102902 -1.09516e-09 5.1354e-10 -1.18494e-09 10.2786 0.731801 0.0259123 -1.09517e-09 5.13547e-10 -1.18494e-09 2.22167 -0.733487 -0.20892 -7.31635e-14 -3.27606e-13 -1.28713e-14 -25.6063 -41.6375 -2.80473 28.3599 -33.6457 -73.1348 0.0133565 -3.29775 0.463987 3.76658e-10 1.46199e-09 8.74525e-11 6.57611e-10 2.51858e-09 1.47792e-10 3.76658e-10 1.46198e-09 8.74557e-11 -7.73091 5.47488 -0.417314 3.76661e-10 1.46199e-09 8.74525e-11 -2.90554 0.965183 -0.102902 3.76651e-10 1.46199e-09 8.74613e-11 -10.2786 0.731801 -0.0259123 3.76658e-10 1.46199e-09 8.74653e-11 -2.22167 -0.733487 0.20892 -2.03217e-16 0.0 -3.88251e-19 9.88018 -19.8972 18.5095 -0.0359625 21.8286 0.439165 -7.07409 -19.228 -22.3071 2.03217e-16 0.0 3.88251e-19 2.7756 -15.6789 -5.44523 0.213475 13.7852 -0.287474 0.619267 4.15091 6.51403
22.2294 84.1663 -3.89997 -114.409 87.3274 -100.082 -1.44025 -11.6583 0.44669 1.75857 3.14364 0.371643 -4.72191 -4.68306 -11.0291 178.253 25.3048 -13.8762 -0.0 0.0 0.0 -0.0 0.0 0.0 -5.73568e-14 -2.08434e-13 -5.88899e-15 178.701 68.2988 -135.252 -28.3971 -34.2191 74.0561 -0.183157 12.1055 1.72736 -7.38458e-10 3.18751e-10 -1.06542e-09 -1.2818e-09 5.61531e-10 -1.84071e-09 -7.38449e-10 3.18748e-10 -1.06543e-09 7.73091 5.47488 0.417314 -7.38453e-10 3.18746e-10 -1.06542e-09 2.90554 0.965183 0.102902 -7.38452e-10 3.18745e-10 -1.06542e-09 10.2786 0.731801 0.0259123 -7.38461e-10 3.18751e-10 -1.06542e-09 2.22167 -0.733487 -0.20892 -5.7464e-14 -2.08452e-13 -6.18873e-15 -25.6049 -41.6375 -2.81259 28.36 -33.6448 -73.1317 0.0139237 -3.36794 0.473884 3.49956e-10 1.14912e-09 -1.40809e-10 6.10657e-10 1.97917e-09 -2.46416e-10 3.49955e-10 1.14912e-09 -1.40803e-10 -7.73091 5.47488 -0.417314 3.4996e-10 1.14913e-09 -1.4081e-10 -2.90554 0.965183 -0.102902 3.49949e-10 1.14913e-09 -1.40801e-10 -10.2786 0.731801 -0.0259123 3.49956e-10 1.14913e-09 -1.40799e-10 -2.22167 -0.733487 0.20892 -2.03217e-16 0.0 -3.88251e-19 9.88715 -19.8929 18.4869 -0.0371089 21.8227 0.439432 -7.06675 -19.2094 -22.3132 2.03217e-16 0.0 3.88251e-19 2.78806 -15.6885 -5.45275 0.212597 13.8039 -0.288108 0.620969 4.14569 6.53075
22.2299 84.1655 -3.89445 -115.078 87.3008 -100.739 -1.35008 -11.6793 0.473312 1.73263 3.11664 0.37798 -4.68777 -4.67882 -11.0545 178.303 25.3064 -13.8592 -0.0 0.0 0.0 -0.0 0.0 0.0 -3.01671e-14 9.43684e-14 1.11382e-14 178.533 68.2726 -135.077 -28.3975 -34.2278 74.0706 -0.185943 12.1958 1.74063 -1.80723e-10 2.75177e-12 -7.78621e-10 -3.17173e-10 1.33007e-11 -1.34832e-09 -1.80715e-10 2.74986e-12 -7.78626e-10 7.73091 5.47488 0.417314 -1.8072e-10 2.74832e-12 -7.78621e-10 2.90554 0.965183 0.102902 -1.80715e-10 2.74755e-12 -7.7862e-10 10.2786 0.731801 0.0259123 -1.80726e-10 2.75077e-12 -7.78617e-10 2.22167 -0.733487 -0.20892 -3.03367e-14 9.4352e-14 1.08524e-14 -25.5961 -41.611 -2.78901 28.3602 -33.6437 -73.1283 0.0146211 -3.4514 0.485656 2.53098e-10 5.97098e-10 -4.32356e-10 4.41565e-10 1.02752e-09 -7.49692e-10 2.53094e-10 5.97096e-10 -4.32346e-10 -7.73091 5.47488 -0.417314 2.53101e-10 5.971e-10 -4.32357e-10 -2.90554 0.965183 -0.102902 2.53089e-10 5.971e-10 -4.3235e-10 -10.2786 0.731801 -0.0259123 2.53097e-10 5.97102e-10 -4.3235e-10 -2.22167 -0.733487 0.20892 -2.03217e-16 0.0 -3.88251e-19 9.9025 -19.9068 18.4573 -0.0380987 21.825 0.439732 -7.05592 -19.1731 -22.3284 2.03217e-16 0.0 3.88251e-19 2.80864 -15.7146 -5.47433 0.211178 13.8341 -0.288926 0.622856 4.14523 6.55579
22.2278 84.1637 -3.88906 -115.438 87.2913 -101.078 -1.25778 -11.6968 0.499672 1.70593 3.06823 0.384549 -4.65341 -4.66638 -11.0813 178.353 25.3054 -13.8439 -0.0 0.0 0.0 -0.0 0.0 0.0 -2.16025e-15 4.16719e-13 2.92182e-14 178.367 68.2274 -134.904 -28.3978 -34.2358 74.084 -0.188938 12.2914 1.75471 3.63755e-10 -3.02519e-10 -4.34129e-10 6.24893e-10 -5.17032e-10 -7.55822e-10 3.63762e-10 -3.0252e-10 -4.34129e-10 7.73091 5.47488 0.417314 3.63756e-10 -3.02522e-10 -4.34128e-10 2.90554 0.965183 0.102902 3.63765e-10 -3.02522e-10 -4.34127e-10 10.2786 0.731801 0.0259123 3.63752e-10 -3.02521e-10 -4.34123e-10 2.22167 -0.733487 -0.20892 -2.38819e-15 4.16706e-13 2.89527e-14 -25.5862 -41.5696 -2.74864 28.3604 -33.6432 -73.126 0.0152184 -3.52023 0.495365 1.35687e-10 1.6113e-11 -6.84369e-10 2.36704e-10 2.60698e-11 -1.18451e-09 1.3568e-10 1.61119e-11 -6.84353e-10 -7.73091 5.47488 -0.417314 1.3569e-10 1.61142e-11 -6.84368e-10 -2.90554 0.965183 -0.102902 1.35677e-10 1.61135e-11 -6.84364e-10 -10.2786 0.731801 -0.0259123 1.35687e-10 1.6116e-11 -6.84368e-10 -2.22167 -0.733487 0.20892 -2.03217e-16 0.0 -3.88251e-19 9.91819 -19.9285 18.4279 -0.0389139 21.834 0.439975 -7.04808 -19.139 -22.3464 2.03217e-16 0.0 3.88251e-19 2.82841 -15.7424 -5.50028 0.209775 13.8609 -0.28967 0.624703 4.14597 6.58071
22.2289 84.161 -3.89268 -116.172 87.3135 -101.798 -1.18399 -11.7086 0.525467 1.68748 3.01608 0.391268 -4.62869 -4.65906 -11.1012 178.388 25.3089 -13.8148 -0.0 0.0 0.0 -0.0 0.0 0.0 1.60316e-14 5.94519e-13 3.90612e-14 178.211 68.1769 -134.744 -28.3982 -34.2424 74.0948 -0.191406 12.3693 1.76619 6.80694e-10 -4.65131e-10 -1.41528e-10 1.17386e-09 -8.00743e-10 -2.51335e-10 6.80701e-10 -4.65131e-10 -1.41528e-10 7.73091 5.47488 0.417314 6.80694e-10 -4.65133e-10 -1.41528e-10 2.90554 0.965183 0.102902 6.80705e-10 -4.65134e-10 -1.41528e-10 10.2786 0.731801 0.0259123 6.80691e-10 -4.65133e-10 -1.41522e-10 2.22167 -0.733487 -0.20892 1.5775e-14 5.9451e-13 3.88127e-14 -25.5815 -41.5253 -2.70608 28.3608 -33.6442 -73.126 0.0154509 -3.5465 0.499072 4.7329e-11 -3.83624e-10 -7.94025e-10 8.24436e-11 -6.62767e-10 -1.37334e-09 4.73203e-11 -3.83624e-10 -7.94006e-10 -7.73091 5.47488 -0.417314 4.73327e-11 -3.83623e-10 -7.94025e-10 -2.90554 0.965183 -0.102902 4.73192e-11 -3.83624e-10 -7.94022e-10 -10.2786 0.731801 -0.0259123 4.7329e-11 -3.83622e-10 -7.94029e-10 -2.22167 -0.733487 0.20892 -2.03217e-16 0.0 -3.88251e-19 9.92622 -19.9478 18.4055 -0.0395367 21.8483 0.440074 -7.04974 -19.1267 -22.3611 2.03217e-16 0.0 3.88251e-19 2.83852 -15.7571 -5.52092 0.208938 13.869 -0.290084 0.626288 4.14435 6.59703
22.2366 84.1599 -3.88715 -117.212 87.2783 -102.841 -1.13299 -11.7116 0.556302 1.67936 2.94503 0.400124 -4.62099 -4.64891 -11.1129 178.397 25.3179 -13.7597 -0.0 0.0 0.0 -0.0 0.0 0.0 1.57377e-14 5.43411e-13 3.77769e-14 178.048 68.1058 -134.576 -28.3985 -34.2466 74.101 -0.193253 12.4275 1.77476 6.50433e-10 -4.01118e-10 1.11382e-10 1.1233e-09 -6.93183e-10 1.873e-10 6.5044e-10 -4.01119e-10 1.11378e-10 7.73091 5.47488 0.417314 6.50433e-10 -4.01121e-10 1.11381e-10 2.90554 0.965183 0.102902 6.50443e-10 -4.01121e-10 1.11382e-10 10.2786 0.731801 0.0259123 6.50429e-10 -4.01122e-10 1.11388e-10 2.22167 -0.733487 -0.20892 1.54939e-14 5.43408e-13 3.7542e-14 -25.5807 -41.4604 -2.65213 28.3612 -33.647 -73.1294 0.0150951 -3.50693 0.493489 4.944e-12 -5.35823e-10 -7.07002e-10 8.16397e-12 -9.24702e-10 -1.22218e-09 4.93556e-12 -5.35822e-10 -7.06981e-10 -7.73091 5.47488 -0.417314 4.94799e-12 -5.35821e-10 -7.07004e-10 -2.90554 0.965183 -0.102902 4.93482e-12 -5.35823e-10 -7.07e-10 -10.2786 0.731801 -0.0259123 4.94378e-12 -5.35821e-10 -7.07008e-10 -2.22167 -0.733487 0.20892 -2.03217e-16 0.0 -3.88251e-19 9.92678 -19.9632 18.3949 -0.0401484 21.8695 0.439914 -7.06601 -19.1482 -22.3721 2.03217e-16 0.0 3.88251e-19 2.83806 -15.7541 -5.53529 0.208925 13.8519 -0.290072 0.627416 4.14226 6.60342
22.24 84.1589 -3.89226 -117.864 87.312 -103.487 -1.0942 -11.7078 0.590438 1.67688 2.85229 0.410489 -4.62346 -4.63264 -11.1203 178.392 25.3287 -13.6894 -0.0 0.0 0.0 -0.0 0.0 0.0 4.57374e-15 3.64446e-13 3.04575e-14 177.88 68.013 -134.403 -28.3988 -34.249 74.1041 -0.194821 12.4768 1.78205 4.08094e-10 -1.97105e-10 3.6924e-10 7.06698e-10 -3.44225e-10 6.36303e-10 4.08102e-10 -1.97106e-10 3.69227e-10 7.73091 5.47488 0.417314 4.08095e-10 -1.97109e-10 3.69237e-10 2.90554 0.965183 0.102902 4.08103e-10 -1.9711e-10 3.69238e-10 10.2786 0.731801 0.0259123 4.0809e-10 -1.9711e-10 3.69245e-10 2.22167 -0.733487 -0.20892 4.36872e-15 3.64452e-13 3.0237e-14 -25.5818 -41.3754 -2.58348 28.3616 -33.6513 -73.1351 0.0143563 -3.42168 0.481463 -1.9155e-11 -5.56006e-10 -4.87105e-10 -3.43145e-11 -9.58908e-10 -8.41275e-10 -1.9162e-11 -5.56002e-10 -4.87081e-10 -7.73091 5.47488 -0.417314 -1.91507e-11 -5.56003e-10 -4.87109e-10 -2.90554 0.965183 -0.102902 -1.91629e-11 -5.56004e-10 -4.87104e-10 -10.2786 0.731801 -0.0259123 -1.91556e-11 -5.56003e-10 -4.87112e-10 -2.22167 -0.733487 0.20892 -2.03217e-16 0.0 -3.88251e-19 9.92337 -19.9799 18.3913 -0.0406962 21.8976 0.439572 -7.09231 -19.1906 -22.3824 2.03217e-16 0.0 3.88251e-19 2.83128 -15.7413 -5.548 0.209404 13.8186 -0.28978 0.628248 4.14065 6.60409
22.2391 84.1589 -3.89521 -117.924 87.3601 -103.53 -1.06594 -11.7028 0.616566 1.67891 2.77405 0.418366 -4.62466 -4.63063 -11.1238 178.385 25.3423 -13.6237 -0.0 0.0 0.0 -0.0 0.0 0.0 -3.6629e-15 1.7164e-13 1.97868e-14 177.744 67.9342 -134.267 -28.3991 -34.2515 74.1072 -0.195994 12.5137 1.78749 1.21576e-10 2.29553e-11 5.71111e-10 2.13413e-10 3.3078e-11 9.88658e-10 1.21585e-10 2.29535e-11 5.7109e-10 7.73091 5.47488 0.417314 1.21577e-10 2.29496e-11 5.71106e-10 2.90554 0.965183 0.102902 1.21583e-10 2.29486e-11 5.71109e-10 10.2786 0.731801 0.0259123 1.21571e-10 2.29493e-11 5.71115e-10 2.22167 -0.733487 -0.20892 -3.81787e-15 1.71654e-13 1.95791e-14 -25.5891 -41.3098 -2.52342 28.3622 -33.6562 -73.142 0.0135863 -3.32804 0.468257 -4.22714e-11 -5.06684e-10 -2.0871e-10 -7.49636e-11 -8.7315e-10 -3.59435e-10 -4.22767e-11 -5.06678e-10 -2.08685e-10 -7.73091 5.47488 -0.417314 -4.22668e-11 -5.06681e-10 -2.08716e-10 -2.90554 0.965183 -0.102902 -4.22778e-11 -5.06681e-10 -2.0871e-10 -10.2786 0.731801 -0.0259123 -4.22721e-11 -5.0668e-10 -2.08719e-10 -2.22167 -0.733487 0.20892 -2.03217e-16 0.0 -3.88251e-19 9.91298 -19.9971 18.388 -0.040811 21.9293 0.439248 -7.12065 -19.237 -22.3903 2.03217e-16 0.0 3.88251e-19 2.81709 -15.7236 -5.55774 0.210047 13.7771 -0.289313 0.629107 4.13455 6.59888
